#!OML:ASF H:\Dans Jumps\Project 1\Capture day 1\Session 1\subject.ASF
:FULLY-SPECIFIED
:DEGREES
130
root 0.140393 17.5787 -13.7653 7.53631 1.15221 -1.39965
lowerback -1.73271 -0.779926 0.340508
upperback 2.67721 -1.11418 1.82358
thorax 3.75606 -0.573406 1.63179
lowerneck -13.35 0.592182 -1.95173
upperneck 31.5174 1.11049 0.863367
head 12.662 0.370187 0.833244
rclavicle -1.03865e-014 1.55052e-014
rhumerus -23.6489 -24.2226 -76.0428
rradius 26.3036
rwrist 31.5569
rhand -18.3126 -25.8066
rfingers 7.12502
rthumb 7.96868 -55.6363
lclavicle -1.03865e-014 1.55052e-014
lhumerus -19.5163 3.31322 86.2156
lradius 21.2182
lwrist 2.0916
lhand -23.9804 -2.54544
lfingers 7.12502
lthumb 2.49626 27.4197
rfemur -14.01 -4.04267 20.9933
rtibia 21.5231
rfoot -13.8597 -3.42134
rtoes 11.2773
lfemur -13.9196 7.14334 -19.2902
ltibia 19.4488
lfoot -11.0367 5.25749
ltoes -0.368146
131
root 0.142294 17.5765 -13.7774 7.54698 1.17138 -1.40554
lowerback -1.61449 -0.784389 0.355665
upperback 2.70393 -1.11954 1.82881
thorax 3.71678 -0.57577 1.62982
lowerneck -13.3482 0.59246 -1.95415
upperneck 31.4125 1.11585 0.848267
head 12.6182 0.371286 0.82761
rclavicle -1.05853e-014 2.34566e-014
rhumerus -23.5775 -24.0551 -76.0957
rradius 26.3574
rwrist 31.4628
rhand -18.322 -25.7988
rfingers 7.12502
rthumb 7.95957 -55.6289
lclavicle -1.05853e-014 2.34566e-014
lhumerus -19.4878 3.18599 86.2478
lradius 21.3227
lwrist 2.21741
lhand -23.9872 -2.61564
lfingers 7.12502
lthumb 2.4897 27.3496
rfemur -14.1257 -4.01888 20.9962
rtibia 21.6407
rfoot -13.8664 -3.46495
rtoes 11.2255
lfemur -14.0564 7.1355 -19.2993
ltibia 19.5927
lfoot -11.0494 5.2557
ltoes -0.405343
132
root 0.144248 17.574 -13.7904 7.55635 1.18716 -1.41359
lowerback -1.48143 -0.78756 0.373689
upperback 2.7359 -1.12309 1.83338
thorax 3.67442 -0.577149 1.62584
lowerneck -13.3527 0.591158 -1.94888
upperneck 31.2962 1.11932 0.825503
head 12.5714 0.371559 0.817383
rclavicle -1.49089e-015 -2.38542e-015
rhumerus -23.5047 -23.8728 -76.1547
rradius 26.4272
rwrist 31.3547
rhand -18.3325 -25.7844
rfingers 7.12502
rthumb 7.94938 -55.6149
lclavicle -1.49089e-015 -2.38542e-015
lhumerus -19.4634 3.02375 86.2828
lradius 21.4491
lwrist 2.36956
lhand -24.0061 -2.68036
lfingers 7.12502
lthumb 2.47147 27.2851
rfemur -14.2509 -3.98933 21.0011
rtibia 21.7718
rfoot -13.8755 -3.50933
rtoes 11.1844
lfemur -14.2042 7.12949 -19.3069
ltibia 19.7532
lfoot -11.0648 5.25604
ltoes -0.442139
133
root 0.14634 17.5713 -13.8044 7.56855 1.19874 -1.42245
lowerback -1.33927 -0.788913 0.393019
upperback 2.77336 -1.12412 1.83734
thorax 3.63251 -0.577257 1.62072
lowerneck -13.3657 0.58942 -1.93348
upperneck 31.1682 1.12271 0.792676
head 12.5219 0.371786 0.801522
rclavicle -2.08724e-015 -9.54166e-015
rhumerus -23.4293 -23.679 -76.2189
rradius 26.5135
rwrist 31.2359
rhand -18.3425 -25.7685
rfingers 7.12502
rthumb 7.93977 -55.5994
lclavicle -2.08724e-015 -9.54166e-015
lhumerus -19.4401 2.83233 86.3216
lradius 21.5952
lwrist 2.54565
lhand -24.0451 -2.73781
lfingers 7.12502
lthumb 2.4338 27.2281
rfemur -14.3912 -3.95786 21.0066
rtibia 21.9164
rfoot -13.8862 -3.55268
rtoes 11.1409
lfemur -14.3673 7.12364 -19.3155
ltibia 19.9303
lfoot -11.0812 5.26138
ltoes -0.485906
